<mxfile host="app.diagrams.net" modified="2021-02-10T11:56:41.096Z" agent="5.0 (Windows NT 10.0; Win64; x64) AppleWebKit/537.36 (KHTML, like Gecko) Chrome/88.0.4324.150 Safari/537.36" etag="6lBPULWZ3dCiYwi5A_WV" version="14.3.0" type="github">
  <diagram id="wnygO61Tkm3etMv-lIb6" name="Page-1">
    <mxGraphModel dx="3422" dy="1862" grid="1" gridSize="10" guides="1" tooltips="1" connect="1" arrows="1" fold="1" page="1" pageScale="1" pageWidth="2000" pageHeight="1100" math="0" shadow="0">
      <root>
        <mxCell id="0" />
        <mxCell id="1" parent="0" />
        <mxCell id="LAXVHFjVONjvP_47dxOA-1" value="" style="shape=image;verticalLabelPosition=bottom;labelBackgroundColor=#ffffff;verticalAlign=top;aspect=fixed;imageAspect=0;image=data:image/png,iVBORw0KGgoAAAANSUhEUgAABykAAACfCAYAAABNyOUdAAAgAElEQVR4Ae3d3XMc9ZkvcP6LXObyXJ6bTTa8GGxf7OXexXXOJhsgCe82zlYgIWFVFOElu2EDS8CHwDrEu4Y42MTBcYwtUPwCXitIkZGwggDZOLbWsWwjGRsIAQPPqZ7unumZ6ZFGtjSW5U+quiRLo5lfP/3pJtXffn6/Sz7/+c+HTQ0YYIABBhhggAEGGGCAAQYYYIABBhhggAEGGGCAAQYYYKBTBi5ZsaQnViz5XaxYsr1pu3XJjijdlu6MWxu2lUt3Rv22K1YutakBAwwwwAADDDDAAAMMMMAAAwwwwAADDDDAAAMMMMAAAxe7gVOnTkVxu2T54iSkzLfmsLI0pEzCSyGlEFYIzQADDDDAAAMMMMAAAwwwwAADDDDAAAMMMMAAAwwwwEAbBooBZfL9JbcsfjGSbXk1qEwCy/quyvKgUjflxZ54239PfTDAAAMMMMAAAwwwwAADDDDAAAMMMMAAAwwwwAADDLRjoDmkvOqFuCXZKmFl3lGZfK3vqhRUAtYOMK/hhAEGGGCAAQYYYIABBhhggAEGGGCAAQYYYIABBhhgoNFAU0h581Xb0pDybINK075q4W2jhbcRon+7ODHAAAMMMMAAAwwwwAADDDDAAAMMMMAAAwwwwAADF4+BppDypqu2RhpUdmdhZTr9a6t1Kks7KgWVgkpBJQMMMMAAAwwwwAADDDDAAAMMMMAAAwwwwAADDDDAAAMtDDSFlDdeuSWagspsnco0qEymfW1j6tcpg8qLJwWW+DvWDDDAAAMMMMAAAwwwwAADDDDAAAMMMMAAAwwwwAADDNQbaA4pF/020qDy+bipMvVr1lE546ByZ9xaCCpXLt0Z9Vv9QBwY9WCAAQYYYIABBhhggAEGGGCAAQYYYIABBhhggAEGGGDg4jDQFFJef8Vv4oYpgsrli1/MOikbuym3R9PUr4WQMgks60PK5N8XR5Htp+PMAAMMMMAAAwwwwAADDDDAAAMMMMAAAwwwwAADDDDAQM1AU0h53RXPRRJU3rhoc3NHZdZNuXxxT4ugckdDUKmbErYaNrVQCwYYYIABBhhggAEGGGCAAQYYYIABBhhggAEGGGCAgcRAU0j5zct/FZWgclESVP42broqmfZ1a9x8VTLta3fcsvjFSLoply/O16Zs7KhsCCqn7KZ0EJyIDDDAAAMMMMAAAwwwwAADDDDAAAMMMMAAAwwwwAADDFxsBppCym9c/mx884qNWVC5uRpU3pwHlYtfyELK2eimBO5iA2d/mWeAAQYYYIABBhhggAEGGGCAAQYYYIABBhhggAEGGGgKKa+9bH0kQeV1V/w6rl+0qbI+5U1Xbql1UxZCyranfdVNaf1N648ywAADDDDAAAMMMMAAAwwwwAADDDDAAAMMMMAAAwwwkBloCimvuXRdfP3yDfGNK34V11/xXNyw6Ddxw6ItcdOVyZSv2+Lmq16IW+qCyuZpX29d0jDl65Kp1qaUFHtagAEGGGCAAQYYYIABBhhggAEGGGCAAQYYYIABBhhggIGLyUBJSPmLuPbSZwrdlElI+du48crns5ByW9xcCSmTaV97KtuKJXlQuT1WLEm3pqCy0E25cunOqG3AXUzg7CvvDDDAAAMMMMAAAwwwwAADDDDAAAMMMMAAAwwwwAADTSHl1770VFx76S/jG5dtqKxNmU75ujluvHJL3JwHlQ0h5fLFeUiZfJ0+pLy1LqRMAksHQg0YYIABBhhggAEGGGCAAQYYYIABBhhggAEGGGCAAQYYuFgMlISUa+OaS38RX79sfXzz8l/FdYuSKV+TkDLrprwy6aTsbpjytSd0UzppLpaTxn6yzgADDDDAAAMMMMAAAwwwwAADDDDAAAMMMMAAAwycm4GSkPK/4upLfxHXXvZMGlJe/lxcv+g3hZByaxZSdsfyxS9Wp3xdPsMpX3VTntuBA1/9GGCAAQYYYIABBhhggAEGGGCAAQYYYIABBhhggAEGLlQDeUi5a9euSLZLvvq3/xlXX/p0JaT8+uUb4rrLfx2VKV+vTKd8venKrXHzVUknZbIlIWUtqGzsppxqXUohpZPmQj1pjJtdBhhggAEGGGCAAQYYYIABBhhggAEGGGCAAQYYYODcDJSElGuisi7lZesiCSm/efnGuP6K5+KGakj5fNx81ba2Qspkfcr6oHJnJOFkvq2sW5vy3HYEBPVjgAEGGGCAAQYYYIABBhhggAEGGGCAAQYYYIABBhhg4MIw0BxSfjEJKZN1KZOQMl2XshJSZutS3nTl83FTElJWuilfaOim/F22NuX2SALK5pByRzWgbO6k3BnQXBhoHCfHiQEGGGCAAQYYYIABBhhggAEGGGCAAQYYYIABBhhg4FwMNIWUX/niz7OQ8hfVkPK6pJNy0W/ihit/G7WQMummbAwpe7KQMgkrhZTncmD8rRObAQYYYIABBhhggAEGGGCAAQYYYIABBhhggAEGGGBgoRooDSn/8W//K6659Bdx7WVJJ+Wzcd0Vv05DykV5SJmsS5mHlC+c9bqU9dO9XgCdlE+Mx+jgyRhat29mXZ93HI6hwZMx2jsWa5Y6mSonU1bLpJ5l28grEzG0dSw23TMQXQumZq/Hjt6TMTpwNDYum4mD3ti4Ja1T3xMz+TuvXagXbvvFNgMMMMAAAwwwwAADDDDAAAMMMMAAAwwwwMCFbqAkpHwy0pDy6bj2smfi61lIeX3SSVmZ8nVL3HRVFlJelXRS5t2UPbF8cVknZcO6lC3XpLxwQsrRV47EuhmETGs3TqZB3HkNKXvjgXv2R8/TB2LVfAj98pBy97Ho2zpetw3snoyRgVp4ObJ9LNavmIOLzdX7Yt3qsdjywzl479IaZyHl4MkYWLO3/aD7xoMxkIW5QspOHat58DnLBmLNI4ej57Gh9q2UupsH+2JcjiEDDDDAAAMMMMAAAwwwwAADDDDAAAMMMMBAg4HmkPILSUj5n3H1pVlIeVnSSbkxrl+0qSSk7C6ElC9WQsrli/N1KVtN+bpzinUp5/nN9DxYS0KmJwfaw7Rsf+zJA7fzGVLePRbD86mbM6vl8IbXW9QxCVUPxMs7s4C3fzw2zXJQuam7092JtZAyCbrXNpyMrZ54eHzdiWq3qZBynl8j2jymrY518edrNkxUjnvrc+TiqUWxLr533BlggAEGGGCAAQYYYIABBhhggAEGGGCgzsCy4diy+USt+emVE7Fn9fACmqVx4R7vppDyH76wuhJSfq0SUv4yvn7ZhvqQclHeSZl0U5aFlGXdlDvi1iU74tYv98fDt78aj94+WNu+MxiPfmcwVlW2oVj1ncZtMB6YQddiHcxZDAwq71sIKUdfOhyPt/H+Dzx5rBowndfpXi+4kDI/6fbGpu4sqNx+KB5so+btGjivIeXgydjzSG+LgDbf9+TrSLz8Sq2rVEhZrM3C/l5IubCPb7vXKa/jgAEGGGCAAQYYYIABBhhggAEGGGCAgakMvB47dtfuoReXlxt+plWT1FTv53ed9FYaUn71i2via5c+FddcloaU37w87aS8PpnuddFv48arno+bK1O+dsct2ZSvyxfnnZStQ8onnzkRb+6diDdfnYi3Xp1s3gYn463BLJAqrFU4bzqJ8pCy0hk5GS9PO01oFjD1T8bI+e5ivGBDyl2xstqN2k7N27+AnLeQMu+s7TkYD0wTuuYh90h/p7s+269jJy9YF9NnCSkZvJi821feGWCAAQYYYIABBhhggAEGGGCAAQbOxkB+D70YTta+PxZbbpyNuvbGA/80FKtW9LXReDQbn3fxvEdJSPkfUQkpv1QMKX8V1y96LpJ1Kc8upEzXpawPKVsEla/O/5Cyb93hGEpCx2lCpq5Hjla6KIfWHY6+KULKrm+PRk/3RK0VeWAyhrsPx/pv90broKI3Vj18OPp2plNCVk66gckY2T0eOx4bjnuz8Cv/+9pJWf9EQX1nXvaeuwvHYGAihjYfirVNU60ORc9LyXsdi2037op77zoYfdW/S3825QVl2ule60/Cdc+lYxp57s2Si0BfrF59NIZ6C/vWm7Zz37v0QFr7wfHYVKlJ/u/Ca5Njk2+NU/IuG4r168ZjOAsJk9clNe55eCi6Zhz8ZtO99o5Fz5bkM6cLXfelNR44Gj3Z1J/1xyur0VmMcdXT6RSyA2sGYmWrv3+o9bqZyfHeU2cvcXIwVl+9K6YMf1t9VlLPpmNVb6DpPBk8GcM7j8a2HzaPs27/rh6OLVuL59dEDGwYjVVZh/aDDx0u2D0Zo5mdrhYB8lmPo9W+19W5MCVwbrLua+64vjZTnmst9sPfqCEDDDDAAAMMMMAAAwwwwAADDDDAAAMMXOgGNm0t3N+vu5ea/rzvsdbHeLr8pJIbVDKD7L5t94GSfKL1+7dT2/x+ejWjyPdhmvvU7bx36Wsq2cz8uc88RUi5Nq65bF18/bL18c3Lpwopy6Z8zdel3B4rliQBZRpS1qZ7LUz5Wjfda9m0r/Nvute+JwZiS08C/ET03NEKYP6aJKnPgrHGAGzprui6J1srMoHXeyL6to5H39ZjMZx02/WPx47N5evSrcnXKRyYjKHu5G/Go6+7NufyyNb98cOlu2LVY0fS3/VkYebARAxUPiP9m20/zMe/NzZuKb7mSPSsOxJ927OflawJmZ48E7FjdbYP/ZMxvP1YDPcfzQLB/L1Lvs4wpFz52HgaJO4ei9V1oUthOtgk3N2e1SJby3J4w1gMVE7q/KQbiW3Z/g9l06iO7Mz+Jvn5xgOxKn//ZYU28SSszeo8UGkdn4y+DUdnuM5nLaRc88MjaXftlv2t58XOXjOycaQaVjeFlGc7xmr9D6at8AVH6f6lIeqeh5unpH3wifF07JXA9li9vd1jsaNybpyMqcdac5t/3tC6sYZAuebmwUeyWifB5PbxeHnd4Xg5P08GJ6PviYagsnH/+jP3defIgVid78vubD9y78l7Pta87uw5j2PaOg/Fpo2px7wuo/nYKm4Ptb2Wael/gHLbvs76/5lQ79r5qhZqwQADDDDAAAMMMMAAAwwwwAADDDDQKQPnElI2jrESWpbkOCuXzl0nZSVnaQg/u64fjLVrj8XI4GSU3aNvHPeM/l25d57nJeffaVNI+X+/kHRS/jz+8Utr45pL18W1WUh53RWFTsor8+let8UtpetS1oeUaVCZrUuZrE25dGd1W7l0Z9S281+QKQ9mFnwMPT0UXQ8frQQ1SYBU+jd3ZN2WlRCqRUi5bDT2VDr0JqNvddJJVtj/ZUOxcUuto7Fuyttl2fsNHIstjR2OSbfWhmPR92RDwDJN19+Da7K1M3ePxZqGNUDv/WEWQjasw1lN+JPgZd1ItXuztB7FfUu+r4ZIbc4J3WL8j2cdgaO7x2Lt1YX6Ld0VybiH8qlVq52Utdfk428K0ypj7Y31Wf1Hug9Wu+7SfeuNVavS4197kqL2vq33PwspB47G+qVZl+Rgq3bz3thY6bZMg/D8iY76sZ7DGLP6jyZTEfccqnRA1sbdG6vWZh5eOlwLbZO65K4HJ2LHDxta268eiR2V7trsCZUnijUpjDX5vAZjDz50JA3m6wLl7O9XHMqC5onYcU9DaJp8ZiU0bnhgIN+/gZMx0n2gfi3T6vudjNGB5nPvwdW1fa9bd7b6d2cxjpnWeemuajBdd+43nkf+XX79VRd1YYABBhhggAEGGGCAAQYYYIABBhhg4KIwMJvTvbYOKYv3umf3+7KQMs8hKs1yW2e5e7Ny73xeh5RPTBlS3pCsSXnllripsi7ltri5NKRssS7ll/vj4duTLspCJ+Xtg/FoUzflUKz6Tr7Nv07KNDSYKmTKA5k8OCkPKfMpKUdbddMtezNezrr96oKKFoFdLWQqOUmm/Jts7cyWnaF5YDYRO+6uvXce8o1uP1QfArVz8T/bkLIubByNPZUQMq9zbWx5Larha93fpa/Lx18f/GXv8Z0sZB44GhsbArX8ApFPQTta+mRF81hWLs2n8kwvAPl0wKVBdx4GZjZKQ8pzGWMe4rUKSZcdbOhATfdnfSU4PRlD6/aV/weuGuQ1dFJWxzoem1rMAZ7v42jDsVq7MQ3rW31mXse6cyTfv9Lj15t1Qreasjl3VX+hPqdxzLDOibG8HnX71c655TXlNtVFXRhggAEGGGCAAQYYYIABBhhggAEGGFiABgozIlaaYNImmqTBaPiZNpukMhetQ8r03n7tXm2S+UzGy6tGY8f2iRjpT+9hD2/eHw9ePRI9xZ9tPdjUtJPnF8nXaUPKLaOFY9YXa9cWlqdLZoDcuD9rsspynIZms8pnVWZtzHKUkpCyfjm/ZDbDsVjf2CA3R+dOSSdlMaT8RVx72TPxzcufjeuu+HVcv2hT3LBo81mHlNU1Kfcm61FeuGtS5hDzhL4pPLkxC3h6DsYDlQNXFlLWgpI9D5cFWunP8iAs/8wUb7EDc197HYxThZT5lLONXXNFdFnoM7C61smWh3yVdQ2Lr23n++z96verdR1Wlo2/nXHfmHfh1QdO1ZN/sCFMy8belXfT1V0AGsb3o2zK1rMMKVcuzcLhkiAtDcRqa1bmgVUxUD2nMeYhXs/B+g7e6rGrD1RTd/nPTkTPdxpqUf27gdi2vbmTsq2x3pVPfVw8Vu18ZnZ+Ffdlmv3L6zn8zHDhAp/vU/6ZxVA+/9lU+z7zcTQG12md03FUx7hhZv8hLb6H7/Nj6isLDDDAAAMMMMAAAwwwwAADDDDAAAMMLFgDy4Zjy+bacnijr5yIPauHW9z7bu1gZiFlumTflm+nmUnXt9MsYqT/RG0WwhUHY2DgZAytHSq5D52Oozyk7IvHH0lmHyzO6tebNrYk7//IvnhgWV88eN/B6OstzCZYaX6q5Qrp8c7Cyzyvqtw7L9yDr2QvkzGw9vV4IGnYunpfbHxuIkbLws5qDtC6hjM11hxS/s0T8ZXKdK//FVdfmoaU35gupLzqhbhl8QuxfPGLsXxxT2VbsaR+ytdbl+yIJ585Hm/unUi3BRBSrsw7HV85UrdO3OPZepF7HskDvbKQMg89ikFI84FtFVQka1lWpzJN1mLcmazTdyDWfX+g/MQrC/lyUHmg0/CUQdNCrcmTB4XAJA8pi8FZ2wCzzyy+35R/m69JWQxS83E3zNdc/z5Z7Ru685LXTDX+VnWve++paprXtu5rfsxrF4C803OgOD3vsv1ph2jhIpCPp1jr/GdT1rDVGKetXfNYVy5tXctiXcrq2tZYS98//8za0y9lLpum3Z1m//LxFOtZ24d834vn5tyMQ0jZfM2rHQe/UwsGGGCAAQYYYIABBhhggAEGGGCAAQYY6JyByn3j0qak9J5x7V58er+49u9kjMPp0mTFZpo8h5giw8jvpzff956MvicGa3lPtgxgXZaQ5A+VLsn8XvZAOotgcfbOSlNdIbis3DvPM4reNCcpvj55z0pGkb/n3Na/RUj5ZPzjl2Y/pLx1QU33mh6YPJDseyJfAzLrjisETNVwpw53WRDSfLDzMKUee/a6q/fFutVjsaf7RAxX1rbMgpzeo7GxsRW3VViVgMsDnZ5DhWl28+l267/+5Po8eJ065Jv2wpl9Zul+1QV76b7mHaUjz71Ze+IgH/cUJ3i19vM0pExP9pNRnDI279Cthdy1qT+LodqUNvIatjru09Yu95lfrJLjkAd1xZ81m80vqjMea+n75595LLZVp4CuN1mdGvqfCgH9NPuX1644xprZfN+LF+G5GYeQstlP7Tj4nVowwAADDDDAAAMMMMAAAwwwwAADDDDAQCsDe2P9uvEYriwJdzKS7sm+rePp1l3oqtw9Hj0P7a3lCvm985KvMw0pG+8vJ/fGGzOPyv3yKTKMyu9Lspm1jx2Jof6kCzNbeq1yr38idtzVWI/03nU+lnR5tGOxJVt2rZJhFfOqyr3z/B5/fi+8vEkof8+5NFgSUj4eX/liIaS89JnIOymvK073euXzcfNV2ZqU2bqU03VSJt2U1W3pzrg121Yu3Rn1W2OR58m/s+CjDlk+tWt2kB/IXlOfZmcBR11IWZsWc+bTvZbXo+v612PT5omoJO5FdMnJ1iqsSn7XzrSpJSdsWRjVNtayWpZ8RuX9bjwQfZULTSHtT16bT7da7K5sfI+znO71gTXH0jrO6XSv6XHM1zpMQ8nsotDQnVsWqp3TGLP6j7a8OOYXp/xilYw1XyN1qilPa66LF7C5ne615HyYZv/K6lmzm+97MaTMfzbVvs98HELKkpo1nsP+3db/gar5VVO1YIABBhhggAEGGGCAAQYYYIABBhhY6Ab2xqbudB3I5g7EssAt6UqcPqg8byFli/v0q54+UWtwajOkzJeZS5cpTJvq6vKqyr3z/L5/et+7fFm0zhiaWUh5RWFNypKQ8pZppntt2Ul5+2A8+p3BWFXdip1Sg+k8uPPhRnWLYK22fuC+6HnpZIw2rTFYFlLuirwLc7SxlTbf13w62YZpVqe+wOZhSo4sgzRVSLl0NJ1edDBbODX//Gm+diakLFxseg7Gg8Ux5dOiTjHufDrV0Rl2Uq6szN1cdizzE7M38u7OYhfkWR2bPOhO9u+Ro5VwtHGd09JQ7VzGOE2IVx6eZXNXD56MxvFV93tFvgZow1qf3zkcQ8l0wk3nRl7PWrdo47FavyX9j0rLzyyayL+fZv9K65n/7dL8HCqGlLtiLsZRXue0JvkY6x6KqI6xVrdq7f1OmMcAAwwwwAADDDDAAAMMMMAAAwwwwAADF4GBtFuwLIyc4mdT3JvO77HOt5Cy0qj0ypFYlxzTbLrX4gyMlXHXTfea3jeuzNaY/F2SNzTud11ImU332nMwHjhPbppCyv/zN4/HV77wZHw1n+612ElZGlJui1uyTsrpQsoFtyZlftDysGj3RIyUBorlIeXKQodg3+qh2tzClffdG+uTxUmzdSLrgooVB2PP1oOxpjD1an4SrcxDooGjsT4fX/I1Azw6eCJ2/HNtytb87x5PEvnks3YfifWNU8Uu3RX33rE/dmw8GI8X3nNuQ8reeOCeA7EnCX2TcfWPx6aSceVBzujusVh7dX1w0/XPh2KgOg1uQ2i7tBCKbd0f9xb2K63JQHXNypHug7EqWTC28JoHHzoSw9mxOeeQcmke/k3E8O4kyBuPTVkrdv6Z+X4WuxNXLj2HMU4T4rUMz/Kwe3CitvhvXpdlw7Gtp/b0Sv1Ye2P9lvR3Iz2HYnVZPfO2/MZAOT+/Bifi5bK2/GQh3w1HYssdhWM0zf6V1zP/+/KQshpcz+I4WtZ56a7oyvfhpbGmeuUufM2Pma8sMMAAAwwwwAADDDDAAAMMMMAAAwwwcLEYyBtK8vyk3a9TzWqZ1G7ehJRX743V/3a4km+MbBnNsqPedHz9x2LbPcnSZ73xwPf3x8u7T8ZI94HSBq+R/pMxsnGkLttIl/+r5SVdlZk2J2Now/54PMlYlg3ET+47GH0vHY2NDffx58LXFCHlf8bVlz4d11z6y/jG5Rviuis2xnVZSHnDlVvipmonZXlIuXzJ72JFZdseK5Zsj1uXbI8FG1IWwqLRwdpcv7UD1iKkXLorHnxivBJsVk6i3nzO5GPpPMoDJ6KvOw0qiyHlT57MpiIdPBkju4+VzLNc1rpcC4lGByZjePt49G0fj57q/MV7Y9PWWsA0vDObu3nreAz1ZkHhwInY9v3ahX42QsrR4vjz+aJ3TsRINbA6GSPbDzcFkNXaLns9duRBZr5fyfvszAKxreMxUAkTaydd9W+r4VeyJmRa+6Hn9tdO2BUHoi8POQcmYqg7rclAEiQm3YRbx9Ogsm4a31p9qp+Th3jVDr2SsVTDv5KLRn5xHGzoTkze92zHmAdgLdrIW4dnvbHmmSzQLvrL5/juT1yl9akPKZOL2+vpwsHJ8RiYbK7nurHoa3Gsys+T5DjXgvzq3NxJXabZv7MKKVuer2c/jtZ1Tuo1Gntyf/0TMZBY7j4cq6ueprLmd83nn5qoCQMMMMAAAwwwwAADDDDAAAMMMMAAAwvBQJ5NtBtO5q9rumfdcK/1vIWUeUNU8WtyT3jDaEMDVV+sXTsew/l94yS32Li/4TWp8XQG0JLZMyv3zuszinvvOhh9u2v5UJKX7Fk9XNLcNfvnT4uQ8mfx1S+VhZTPxQ2LfhNpSLklbrpqa2VdyvpOyhdj+eKeWL64OaSsn+711Xg0meY136pTvSbTvl5Y071WTupKS+3JKJ+6tXVImfztvXcdiB3dhWAuCdu6D8f6b2fJeEl3ZuVvtp6oYcyCn+GdR2Pbjxq7MjM4y4Zi/YYsAK28/kQhpExe0xurfnQo9jSGhEmAt+FArG7oVMwvBNOd2KUXvTxEKp50he9HXpmIgc1jsanyRMA08JcNxbq1R2thavI+1ZMoq31jd1528Wk6+bYUQsrkNVcPx6YNhZO+EsyNR8/DQ9GVB4uzEVIuHYgtPUm4V3LRmCqkPNsx5vWfcUhZ7yS/uI8mF8PNBytGpnSRGEwWM84vosV6Lp36WHV9+83YtrnBfP9EDG0di0139dXC5aQm0+zf2YaUieXZHMeUIWXls0Zjx/ZaEDv6kpCy9HqSnc9+N821Up3qrxPqoR4MMMAAAwwwwAADDDDAAAMMMMDABWkgvwddvT9dyBam+tlZZRkXpJFs9sae8zeNa7v3as8ypPxt3JR0U2Yh5c11071OEVIu2RG35tvSnXFrtq1cujPqNzda2z2AXsfKwjGQhZSNUxVfkP8R4HLhuHQsHUsGGGCAAQYYYIABBhhggAEGGGCAAQbmk4EHHj6SzkbZZjhZCS57j8T6hmXW5tM+zeZY0ilcJ2LH3fPfbdsh5Tcr073mnZRCytkE473m/4niGHXgGOWdqS8djlWCyQvyCSbnSQfOE+eGc4MBBhhggAEGGGCAAQYYYIABBhhggAEGygzcsT92bD0RI4OTMfT069lalvP7nmVJSPnT+DPn2OUAABuKSURBVMoXfhZf/dv66V6FlPP7QAoHHJ/5b2AkNq1+PR4oW2x32evRk60tOvDkgP/AlP0Hxs+4YIABBhhggAEGGGCAAQYYYIABBhhggAEGGGhl4I4D8fLGQ7Hujobl0Vq9fh78XEg5Dw7C/A+XBICO0SwY+P7hGMra70d2H4u+rePp1n0iRgaS9ThPxkj3gXjQOek/sgwwwAADDDDAAAMMMMAAAwwwwAADDDDAAAMMLHgDpSHlP8xBJ+WKJdtr61Em61Jak3LB4xLszUKwt8Auwvfe8WZs23gshl+ZrISS+SLGI70nYs/q4bh3ge2vc8A5wAADDDDAAAMMMMAAAwwwwAADDDDAAAMMMMBAuYE5DCl7YsWS30USTubbrUk4mW9CSiGlQIoBBhhggAEGGGCAAQYYYIABBhhggAEGGGCAAQYYYOCiNNBeSHnZhpj5mpTThJRLdk7RTVmeqEqa1YUBBhhggAEGGGCAAQYYYIABBhhggAEGGGCAAQYYYICBC9+AkFI6f1Gm8y5eF/7FyzF0DBlggAEGGGCAAQYYYIABBhhggAEGGGCAAQYYuHANTBlSfu3Sp+OaS38Z39BJKcgT5jLAAAMMMMAAAwwwwAADDDDAAAMMMMAAAwwwwAADDDAwSwaElLNUSEn9hZvUO3aOHQMMMMAAAwwwwAADDDDAAAMMMMAAAwwwwAADDDDQWQNCSiGlxJ8BBhhggAEGGGCAAQYYYIABBhhggAEGGGCAAQYYYICBjhoQUgLXUXCeQujsUwjqrd4MMMAAAwwwwAADDDDAAAMMMMAAAwwwwAADDDAwHw0IKYWUQkoGGGCAAQYYYIABBhhggAEGGGCAAQYYYIABBhhggAEGOmpASAlcR8HNx6TemDxBwgADDDDAAAMMMMAAAwwwwAADDDDAAAMMMMAAAwx01oCQUkgppGSAAQYYYIABBhhggAEGGGCAAQYYYIABBhhggAEGGGCgowaElMB1FJynEDr7FIJ6qzcDDDDAAAMMMMAAAwwwwAADDDDAAAMMMMAAAwzMRwNCSiGlkJIBBhhggAEGGGCAAQYYYIABBhhggAEGGGCAAQYYYICBjhoQUgLXUXDzMak3Jk+QMMAAAwwwwAADDDDAAAMMMMAAAwwwwAADDDDAAAOdNSCkFFIKKRlggAEGGGCAAQYYYIABBhhggAEGGGCAAQYYYIABBhjoqAEhJXAdBecphM4+haDe6s0AAwwwwAADDDDAAAMMMMAAAwwwwAADDDDAAAPz0YCQUkgppGSAAQYYYIABBhhggAEGGGCAAQYYYIABBhhggAEGGGCgowaElMB1FNx8TOqNyRMkDDDAAAMMMMAAAwwwwAADDDDAAAMMMMAAAwwwwEBnDQgphZRCSgYYYIABBhhggAEGGGCAAQYYYIABBhhggAEGGGCAAQY6akBICVxHwXkKobNPIai3ejPAAAMMMMAAAwwwwAADDDDAAAMMMMAAAwwwwMB8NCCkFFIKKRlggAEGGGCAAQYYYIABBhhggAEGGGCAAQYYYIABBhjoqIGmkPK53zwfv936YnT37Ijf7dwdu/7797H793+I3v5Xo3/vazEwNByv7huJweE34rU/vhnDI6Pxxzf3x+tvHoiRt96OkdGD8cb+P8WbBw5VtrfePhyjyXZwrLLt/9P/RL4dOHQkyra3D/85bGrAAAMMMMAAAwwwwAADDDDAAAMMMMAAAwwwwAADDDDAwMI00BRS7ti5K3b/957o6++PvYND8drwH2PkjTfjrf0HYv/bB+NPhw/HobH/ibEjf44jfz4aR48dj/HjJ+LYiXfi+DsTcWJiMt5JtsmTMXHy3Zh891RlO3nqdCTbu6ffq26n3ns/yrbT738QNjVggAEGGGCAAQYYYIABBhhggAEGGGCAAQYYYIABBhhgYGEaEFIKRAXCDDDAAAMMMMAAAwwwwAADDDDAAAMMMMAAAwwwwAADDHTUgJASuI6C87TDwnzawXF1XBlggAEGGGCAAQYYYIABBhhggAEGGGCAAQYYYGAmBoSUQkohJQMMMMAAAwwwwAADDDDAAAMMMMAAAwwwwAADDDDAAAMdNSCkBK6j4GaSoHutJy4YYIABBhhggAEGGGCAAQYYYIABBhhggAEGGGCAgYVpQEgppBRSMsAAAwwwwAADDDDAAAMMMMAAAwwwwAADDDDAAAMMMNBRA0JK4DoKztMOC/NpB8fVcWWAAQYYYIABBhhggAEGGGCAAQYYYIABBhhggIGZGBBSCimFlAwwwAADDDDAAAMMMMAAAwwwwAADDDDAAAMMMMAAAwx01ICQEriOgptJgu61nrhggAEGGGCAAQYYYIABBhhggAEGGGCAAQYYYIABBhamASGlkFJIyQADDDDAAAMMMMAAAwwwwAADDDDAAAMMMMAAAwwwwEBHDQgpgesoOE87LMynHRxXx5UBBhhggAEGGGCAAQYYYIABBhhggAEGGGCAAQZmYkBIKaQUUjLAAAMMMMAAAwwwwAADDDDAAAMMMMAAAwwwwAADDDDQUQNCSuA6Cm4mCbrXeuKCAQYYYIABBhhggAEGGGCAAQYYYIABBhhggAEGGFiYBoSUQkohJQMMMMAAAwwwwAADDDDAAAMMMMAAAwwwwAADDDDAAAMdNSCkBK6j4DztsDCfdnBcHVcGGGCAAQYYYIABBhhggAEGGGCAAQYYYIABBhiYiYE5DSlnMpD8tafee19oJjhlgAEGGGCAAQYYYIABBhhggAEGGGCAAQYYYIABBhhgYAEbmHchZR5W+iptZ4ABBhhggAEGGGCAAQYYYIABBhhggAEGGGCAAQYYYGBhGpj1kBKUhQnFcXVcGWCAAQYYYIABBhhggAEGGGCAAQYYYIABBhhggAEGZsuAkHIBt8nOFhLv44LDAAMMMMAAAwwwwAADDDDAAAMMMMAAAwwwwAADDDAwmwZmNaSczYF5L9AZYIABBhhggAEGGGCAAQYYYIABBhhggAEGGGCAAQYYWJgGhJQ6KS06ywADDDDAAAMMMMAAAwwwwAADDDDAAAMMMMAAAwwwwEBHDQgpgesoOE87LMynHRxXx5UBBhhggAEGGGCAAQYYYIABBhhggAEGGGCAAQZmYkBIKaQUUjLAAAMMMMAAAwwwwAADDDDAAAMMMMAAAwwwwAADDDDQUQNCSuA6Cm4mCbrXeuKCAQYYYIABBhhggAEGGGCAAQYYYIABBhhggAEGGFiYBoSUQkohJQMMMMAAAwwwwAADDDDAAAMMMMAAAwwwwAADDDDQYQMfx88ejPj77o9bfm7P2ohL1p5p+fv5Gl5O7l4Tyx/aEUfaNTX+dmx/5qfRdWdXLL892e6O2x56Kjb94UhMtvseM3nd5OF44+1T572uHQ8p3z39XiTbfIVjXAszjXdcHVcGGGCAAQYYYIABBhhggAEGGGCAAQYYYIABBuaTgYUaUp6K7Y93xY+2H28vC3v7xbj/e13xvcc2R+/+43F88lQcHz8Sw7/fHA/dfXf8YPPb7b1P2yHl4dj0r13xg+cPz/L7ztzWeQkpXQRmfqDUTM0YYIABBhhggAEGGGCAAQYYYIABBhhggAEGGGBg4RhYoCHl5J545Pafxgvj7VhNA8PbftYfx8tCxtPH48g77bzPTF5zEYeUC+fkmckB91rHnQEGGGCAAQYYYIABBhhggAEGGGCAAQYYYIABBhioGTibkPLD2PfSp/G1eyMuuTPic3d/FtdvPhNjp2t1He3+LC558pPY1/dpfPn+iKvujvj8v3wWzx78MMZe/TS+dn/EF7Of/eyNv9Z3E46difsejfj8nRGXdEX83ZOfRP8MQ8LKVK+PvNzeVK+vPRu33f7vselPtfHX6tP8s8nD/bHmofviW8mUsN+9O7oefzGGq+NLw8dHXjoS/b/+aXzvrvvitu91xbfuWxMvvJ291x+eyqaTzaeV7Yrl//pi7K8EpKfi0J5n4/677k5fc+eP45Hn3yqEp3vjsdv/JX65963Y9Pi/VMZwrt2YHe+knKq4ftcMTk3UhAEGGGCAAQYYYIABBhhggAEGGGCAAQYYYIABBhaegZmGlH+Jfd2fxefu/Sx+tu+jOH76wzh+4Ex0/VvEF9eeqYZplZCyK+Jrz+drXX4Y/b+OuOTeiL9fmweaf4l9z38Wl9z7afTnHYyHPokvd0XcvvvjOJ6Enu9+FC9v+iw+/9gnMZa/ZtqvM5vq9dC2R2N517Px6rTv+0Gc/tOLcf9374tHXjock5XxHY9Xf/VofKsaiGZdmV0/jsd+n081eyre2PTvsfy+zfFG9TPKOyn3J2O5a01sz9aqnPzz6/HLH99dmLY2CSm74ra7Vsev9mfrWRbC4bPxKaSsHhQXuLMB5G+4YYABBhhggAEGGGCAAQYYYIABBhhggAEGGGCAgZkbSEPKpCNyym3tmbTb8fSZ6EpCxN83dD8e+DT+7s7P4meH0mOQhpSfRk8xQHv10/hc8pqDheN06JP4++rf/SV61kb872eyz8qzo9Nn4r57au897T5Wpnp9NJ7/c+Fz8vcq+br/+X8vdDJO/Te9P++K255+rb7z8/RrsaYr78RMw8flP99b/5o/vRg/uP3R2HQ4f/+SkPL03njsu/fFmsH8NdnXwWfjtmqnZRpSfu9Xb9W/f8l+TVun7G+ElOdQvHaL7HUNqNV81k5gtthigAEGGGCAAQYYYIABBhhggAEGGGCAAQYYuDANZJ2Umz6OsWMflW7Prom4JA8ps1DxqbHG430muu6M6Nqb/rwSUj74SYwWs4jK334aPU0/ywPIqQPT/L2nq3NlqteHdrQ31ev7H0T7nZRZAJlM81qyPfaHZN9LwsdkfyshZR5ktnhd5TXl77389qeit1K3NKRMP6vxGJzdv4WURZC+F54xwAADDDDAAAMMMMAAAwwwwAADDDDAAAMMMMAAAx0wMMPpXjsQUn75xY/OYb/TqV7v78mnWm0juHtjc3yvrTUp0wDy/m1HphjfuYaUxW7LsrELKacoflnB/Gy6VN/vGWGAAQYYYIABBhhggAEGGGCAAQYYYIABBhhggIHOG5hhSJlN93rf0F/qs6Ky6V5n3EmZTvf6uTW1tS1nXI8ZTvWavn8aLN72s/7qmpp1n3v6VLr+5PsfRDLd6/L/6I/JlgH6OYSUleleu+KRPdlak6WfIaSsh1daJBeSOsBqxAwDDDDAAAMMMMAAAwwwwAADDDDAAAMMMMAAAwzMOwMzDCnf/0vs6/4sPnfvZ/HswWRdyr/E8SNn4tGfRHxxbS1cPLvpXj+I0wc/iS93RVzffSbG3v0gTp/+a4wdOBP3/b9P4+Xi+pYt6jjTqV6rWc7bL8b93+uK21Ztjt79x+PIeLq98YfN8cg9d8cPNh9O7Sav++598dDzr8eRyvhOxfH9/bHm4V9Hf2V87YaUWeD5460x/M6pmHwnDSb3P/9oLL9rdWx67XgahE5OxBt7no0fPZOvgymkdBFpgb+K2e8ZYYABBhhggAEGGGCAAQYYYIABBhhggAEGGGCAgXlvYKYhZdKk9mHse+nT+Nq9EZfcGfG5uz+L6zefibFCiHjWIWVSr7Ezcd+jEZ+/M33///Wjz+Lfft/OFLBnMdVr8fiMvx3bn/lpdN2Zrwt5d9z2rz+Np/YcqeucnDzcH2seui++la1L+a37iq9pP6Q8/c5r8dQDd6frWz60Iw5VxnIqDu15Nu6/K/v5d++Orkd+HS8fzrsrL/CQ8uSp0/Hu6feq26n33o98E7LpAGWAAQYYYIABBhhggAEGGGCAAQYYYIABBhhggAEGGLjgDJzVVK+O86lTpyLZdu3aVdku2bFzV+z+7z3R198feweH4rXhP8bIG2/GW/sPxP63D8afDh+OQ2P/E2NH/hxH/nw0jh47HuPHT8SxE++09VSCkBK6C+7iUnyawfdtneeOsfOcAQYYYIABBhhggAEGGGCAAQYYYIABBhhg4KIxMP529O59u3xdSblCy1zhvIeUFw1QCFsiZMB/qBhggAEGGGCAAQYYYIABBhhggAEGGGCAAQYYYICBi8tAx0NKwC4uYI63480AAwwwwAADDDDAAAMMMMAAAwwwwAADDDDAAAMMMNBoQEipw1GHIwMMMMAAAwwwwAADDDDAAAMMMMAAAwwwwAADDDDAAAMdNSCkBK6j4BpTcv/25AQDDDDAAAMMMMAAAwwwwAADDDDAAAMMMMAAAwwwcPEZEFIKKYWUDDDAAAMMMMAAAwwwwAADDDDAAAMMMMAAAwwwwAADDHTUwEUVUv4Jro7i8tTDxffUg2PumDPAAAMMMMAAAwwwwAADDDDAAAMMMMAAAwwwwEA7Bi6qkLKdgniNE4cBBhhggAEGGGCAAQYYYIABBhhggAEGGGCAAQYYYICBuTUwqyHl8XcmdOrp1mSAAQYYYIABBhhggAEGGGCAAQYYYIABBhhggAEGGGCAgSkNCCkBmRKIpwTm9ikB9VVfBhhggAEGGGCAAQYYYIABBhhggAEGGGCAAQYYuBgNzHpIeWJiUugl+GSAAQYYYIABBhhggAEGGGCAAQYYYIABBhhggAEGGGCAgZYGhJRwtMRxMab29tnTKgwwwAADDDDAAAMMMMAAAwwwwAADDDDAAAMMMMDA3BuYFyHlqffej+LmwM/9gVdjNWaAAQYYYIABBhhggAEGGGCAAQYYYIABBhhggAEGGDhfBs5rSFkMJovfn69i+FwnIgMMMMAAAwwwwAADDDDAAAMMMMAAAwwwwAADDDDAAANzb2BOQsp32lyXshhMFr934Of+wKuxGjPAAAMMMMAAAwwwwAADDDDAAAMMMMAAAwwwwAADDJwvA3MWUr4zeTImTr4bk++eqmwnT52OZHv39HvVrRhMFr8/X8XwuU5EBhhggAEGGGCAAQYYYIABBhhggAEGGGCAAQYYYIABBubegJDy/bkvMshqzAADDDDAAAMMMMAAAwwwwAADDDDAAAMMMMAAAwwwwEDNgJBSSBlOiNoJoRZqwQADDDDAAAMMMMAAAwwwwAADDDDAAAMMMMAAAwzMvQEhpZBSSMkAAwwwwAADDDDAAAMMMMAAAwwwwAADDDDAAAMMMMBARw0IKYHrKDhPHsz9kwdqrMYMMMAAAwwwwAADDDDAAAMMMMAAAwwwwAADDDAw3w0IKYWUQkoGGGCAAQYYYIABBhhggAEGGGCAAQYYYIABBhhggAEGOmpASAlcR8HN99Te+DxZwgADDDDAAAMMMMAAAwwwwAADDDDAAAMMMMAAAwzMvQEhpZBSSMkAAwwwwAADDDDAAAMMMMAAAwwwwAADDDDAAAMMMMBARw0IKYHrKDhPHsz9kwdqrMYMMMAAAwwwwAADDDDAAAMMMMAAAwwwwAADDDAw3w0IKYWUQkoGGGCAAQYYYIABBhhggAEGGGCAAQYYYIABBhhggAEGOmpASAlcR8HN99Te+DxZwgADDDDAAAMMMMAAAwwwwAADDDDAAAMMMMAAAwzMvQEhpZBSSMkAAwwwwAADDDDAAAMMMMAAAwwwwAADDDDAAAMMMMBARw0IKYHrKDhPHsz9kwdqrMYMMMAAAwwwwAADDDDAAAMMMMAAAwwwwAADDDAw3w0IKYWUQkoGGGCAAQYYYIABBhhggAEGGGCAAQYYYIABBhhggAEGOmpASAlcR8HN99Te+DxZwgADDDDAAAMMMMAAAwwwwAADDDDAAAMMMMAAAwzMvQEhpZBSSMkAAwwwwAADDDDAAAMMMMAAAwwwwAADDDDAAAMMMMBARw0IKYHrKDhPHsz9kwdqrMYMMMAAAwwwwAADDDDAAAMMMMAAAwwwwAADDDAw3w0IKYWUQkoGGGCAAQYYYIABBhhggAEGGGCAAQYYYIABBhhggAEGOmpASAlcR8HN99Te+DxZwgADDDDAAAMMMMAAAwwwwAADDDDAAAMMMMAAAwzMvQEhpZBSSMkAAwwwwAADDDDAAAMMMMAAAwwwwAADDDDAAAMMMMBARw0IKYHrKDhPHsz9kwdqrMYMMMAAAwwwwAADDDDAAAMMMMAAAwwwwAADDDAw3w0IKYWUQkoGGGCAAQYYYIABBhhggAEGGGCAAQYYYIABBhhggAEGOmpASAlcR8HN99Te+DxZwgADDDDAAAMMMMAAAwwwwAADDDDAAAMMMMAAAwzMvQEhpZBSSMkAAwwwwAADDDDAAAMMMMAAAwwwwAADDDDAAAMMMMBARw0IKYHrKDhPHsz9kwdqrMYMMMAAAwwwwAADDDDAAAMMMMAAAwwwwAADDDAw3w0IKYWUQkoGGGCAAQYYYIABBhhggAEGGGCAAQYYYIABBhhggAEGOmpASAlcR8HN99Te+DxZwgADDDDAAAMMMMAAAwwwwAADDDDAAAMMMMAAAwzMvQEhpZBSSMkAAwwwwAADDDDAAAMMMMAAAwwwwAADDDDAAAMMMMBARw0IKYHrKDhPHsz9kwdqrMYMMMAAAwwwwAADDDDAAAMMMMAAAwwwwAADDDAw3w0IKYWUQkoGGGCAAQYYYIABBhhggAEGGGCAAQYYYIABBhhggAEGOmpASAlcR8HN99Te+DxZwgADDDDAAAMMMMAAAwwwwAADDDDAAAMMMMAAAwzMvQEhpZBSSMkAAwwwwAADDDDAAAMMMMAAAwwwwAADDDDAAAMMMMBARw0IKYHrKDhPHsz9kwdqrMYMMMAAAwwwwAADDDDAAAMMMMAAAwwwwAADDDAw3w0IKYWUQkoGGGCAAQYYYIABBhhggAEGGGCAAQYYYIABBhhggAEGOmpASAlcR8HN99Te+DxZwgADDDDAAAMMMMAAAwwwwAADDDDAAAMMMMAAAwzMvQEhpZBSSMkAAwwwwAADDDDAAAMMMMAAAwwwwAADDDDAAAMMMMBARw0IKYHrKDhPHsz9kwdqrMYMMMAAAwwwwAADDDDAAAMMMMAAAwwwwAADDDAw3w3MWUh5+r334sO//jU+/vjjOHPmTGX75JNPItk+/fTT6vbZZ59Fqy38TwVUQAVUQAVUQAVUQAVUQAVUQAVUQAVUQAVUQAVUQAVUQAVUQAVU4LxX4JNPP42/fvTRrDW/zUlI+d7778dHH31UCSiFlOfdjAGogAqogAqogAqogAqogAqogAqogAqogAqogAqogAqogAqogAqowKxU4OMzZ2YlqJz1kPLU6dPx17/+VUg5K4fZm6iACqiACqiACqiACqiACqiACqiACqiACqiACqiACqiACqiACqjA/KrAbHRUznpI+cEHHwgp55cTo1EBFVABFVABFVABFVABFVABFVABFVABFVABFVABFVABFVABFVCBWatAMvXrua55Oesh5YcffiiknLVD7I1UQAVUQAVUQAVUQAVUQAVUQAVUQAVUQAVUQAVUQAVUQAVUQAVUYP5VYLZDyv8PyHkh4tyzIlgAAAAASUVORK5CYII=;" vertex="1" parent="1">
          <mxGeometry x="-1929" y="-1100" width="1833" height="159" as="geometry" />
        </mxCell>
        <mxCell id="LAXVHFjVONjvP_47dxOA-2" value="" style="shape=image;verticalLabelPosition=bottom;labelBackgroundColor=#ffffff;verticalAlign=top;aspect=fixed;imageAspect=0;image=data:image/png,iVBORw0KGgoAAAANSUhEUgAAAEcAAAFiCAYAAACkpsUuAAAOUElEQVR4Ae2d72sU1xrH+9cIraCNps1NrMYuBApaqnCxlZqCtyBYGiIWoRD6wnhp5Lq9WExb86J6ab3UWtBcGisNueYaqRqMkrBoS9KoS0yTNBtiCDEkGr6XZ3bO7slk5sx4nN05mXmE6ZmZ7G7n+cz3+TFnn5l9Ydtf94AXdwYvVNZsBS/uDBiOQhwMh+G4u41fOGHlsHJYOaFnXXar53GrjdW1qN20G3tqT6Ih1YXG1JVYLGQL2US2kY1uwdlXOVuq344VFOfJJUhkoxacd7d8FQulOKHI22SjFpyG1+PjSjIQeZ1s1IIjf0ic1xmOIpkwHIajV2qwclg5rJzQay8D3SqDq71TuNykd7bDLC3MgLN/AK31BCOD69kl0L/FO1k0HhrGQGYO4/f8l5HeEbQp4ocONAPgDGPwEYBHMxgUYLJjeUMvzVmggv1nDtfjB6cX7dcWsGgTWBRgyNB/TCL3eAmLQZZH0+iIHxxyp1609y3g8T1bMSEbqeNS9B4D3Cr6wOsFzzg4zccnkVtYwvilTOip2QuC134j4LSdn8Kdsxk0t01hZoGCzxOMnM+g8fQ0ZoLEG3rN7Awuh+yOBsDJ4r4FZAmLMhgytCPx2eoK8q4kKUYooH4Ilzsn0BdkOT+EY+J9IY0GKCcfkJuPj6LvbPRxRo4/xsCRD8qUdTPg1A+h794TLM7OY1BWT/0Avm75Fd8EWQ4PoDkkdxInxwg431yzInG+Rn48g05h5A+zdt0cZIjl5cMVtP53vmj91BS+E3BOzxQuK4ov8FqLKZzG1C380DGNkcwkOgyYqjDKrcTBmDYaEXNMgyKOh+GI+OYyMhwXKKwcBRSGw3CebyKNY45CQQwnbDgfJqB5iWzUUs7uTa2Rz++KjFKqkWzUglO14S3EWT1kG9moBWd9ZTVeeflNvFNzIlaQCArZRLaRjVpwNlRttt784rqNWLN2PdasXYc1L63yhWxYux5kE4EhG7XgUAMzLRVVm1FR9Roqqjah4tVVvpANli2bLdu0m7QtojYgASpOY6VH9zrZ7dvBTi96p/5v+PHiJYyO/oHJXC4WC9lCNpFtbi4VCA69OU5QnCeXbPMC5Kscouv8wLhtk41u6vGFE2fViJNMNmrBER8Q95HhKJIJw2E4eqUGK4eVw8oJvfZitzLfre7i3IE616KLzl7NgTMYVBhRqnrLEOV0o0Vxo3tlzVH0MJz88yW2HziCwwe2SUpKDBy1CxGYUz1ZPOg55QC0/MEc5XC1CNxK7UJB4ZTD1YyDQwe00q2WqyZ/0KV3NSPhuB3Uyn0MRwrKTvXEHs4RdE3kMDnRKaXyoPsYjq0cN2Cxh+N0lWfZZjgcczjmFK6N5CLQLZYE3cdulTy3SqeeJfB6vDYVS+XoTVmWas5G9bkrq/IAjQSqD4zT3xhOIVGsVDTDYTgrVRHE/Vk5rBxWjhlf6nHzkuJ7JG57U8DhhkkFHEpxBIgUFCcXI1vIJq9OUrLbt2HSLf8nZR/DUXgNw3leOBxzPAhytvIAQ4GX6xwFnDilb6+rc7LRLQP7BmSvD4zbfobDUxY8ZWHGlEXcYouXPRxzOOZwzIlLzLmJk7s8vgN3Kz53ncBthfy9Ysbz7o8o5shtKEEglb5pwA2kAXCc/TjObYLHcOyOUoYjtdayWzkyiRxznEpxbrNbSY3aDIfdyi095vexWznijFzCM5yAcDhbOUDJymE4AeC4ZSkBLrEVshOAm6oYjn3veKLhdEOrvb8M7fzO0iOiq3I5rZu7znAUk2gMh+HouS4rh5XDynFU4XpA5HTObhW2W3HzktuXa/Y+bntTwOGGSQUcClTcausDyC2ax32fb8Nk3AGo7GM4Co9hOM8LhwOyB0FO5R5gKFhxEaiAw5cPCjjylWuc191Sum+2ijMQ2TaGE/aUhUw3zuusHFaO3pQpK4eVs2qUk8WNs0dw6INdqEvVoaV7rPCtwWjXJ6ipqcPODw6i5ew1jCrOajkSQQRuJbeY1KHpx2wBzuD5BtQUis9oenJk6BHC+ST/oGinOiY6cdgClGg4XsYLZUl/n8jidtcF/NTTjwf05G0n0BJtR6gcyfhlxjnhjKHr0+JPrdR8erFssWgVwMnDqv+2H5lv95T19qII4djdo8tUk8PkHxcdMed3tH8sKefjC3jgfE+JtiOAk0X7x9RBWofDPxczlYgjoz9TOt+KShlC4en+HkDjAyeH0V+OYicBSO1FuusuRq2fNxhD5qcjeNt6VvIOpH8p1j+TOWccKk9QjkA5ecMy/94n1TSiFzmvqP1n7zoyUsLgkBs9uPk9Wj7agVqrrqnDzo+O4NzNla6WOOWIGEOG5/uSD6I96+Eu2Qs4RAB3/BM3ShRfisdTPIbI3Kp4MMU6pv5f/Q53KrogHWg5axw6PgPg5DB59wz2W4G4Du9/0YnMQ/vsPexH1+d787EptQ9n7hbPahFu6faZASeXw2jPUTtTycHZXk/tQrrHLRaVDow5yhFxZKgbZ9IN2PmGDeWNHWhMn0HPb6WF4KVCY5TjdYBR7mc4QrUuI8NxgSLUynAYjl5AZ+Wwclg5rpceIrjqjFpuxc1L1jSCSynPbW/uUITMuGFSoRyCxK22PoCEkpI0+vYEJgmG01aGo/CYQHA45ngQ5GzlAYZ8kNv7FXC4QlbA0blOWY3vcWYq2vYNyKvRUJ1jZjg8n8PzOWbM5+j472p8D8ccjjmrOeYMdeJk055CE1N90wl0DekZFKb7Ru9Wv4n2E8fsY2ofzkXUQCAARwyn2LjkdiDlblYSUMTodkxlrJBFy5tDNeLSJYJHbgowNDIcc7MVu5W6cuWA7JOWOZX7AFL4vhwky7keXUB+eBPn0vtQZ7fY1jcdQfrzo9bSIgrC1DbsT3+P26L1tswAo4HzsBstz/TjX0fREwGgSODc+GKbaw3hdjBi3/YvrqkDewlUJf7f8ljiIvAaTuzwKPpE8ec2lvm+h4iKQHF70LMC8rontHSBXlaMWC+xchiOIj6M4cbXe+3piaDqqcP7X5f/CQVCLfJYYuWUzg3CroFkKGKd4diZTwCRR4bDcPzdW1aMWGflsHJYOYqSguGUHw43L7ld/Nn7uO1NAYcbJhVwKOdzq60PIFEYJWn0LQKTBMNpK8NReEwgOBxzPAhytvIAQz7IdY4CDlfICjhhT0ea+nnOTEXbvgHZVGPCPi6Go/imlOEwHP+JLTeXZOWwclg5zzUlaq5bcU+gh7S5m9QDTI77kBWxgNv7GY5btPffx26lUE4OkxyQvQKyvZ9TuQ8gRRnv756l+ezorq2s9n569rH97PX+NtRbE2x7cKo/h0l67rr1POSEt/cf/pl+42EMPelt2J7utn5Lhn4co3DmdiW4vX/7yXzrfk+6DjXpbiuA3zi5/BaA5Lb3v9eG27l+nHpvKyrldXkeO7nt/QfRfusM9lsw9uHcLft3HmQ4NQlu72881FCIMfJ6Ie4kAw6396urYgNrGrdaqqja4j0a/L2VffIYjkLFDIfh6F17sXJYOayc0MsHLbfi5qVl1zXFIohoctubAg43TCrgkHq41dYHkFvAivs+32uruANQ2RcMTnUtNsZ0qayuLcwtOUH5wiEotZt2Y0/tSTSkutCYuhKLhWwhm8g2stEJhrZ94WypfjtWUJwnlyCRjVpw3t3yVSyU4oQib5ONWnAaXo+PK8lA5HWyUQuO/CFxXmc4imTCcBiOXqnBymHlsHJCr73YrVabWzUfn8DIn0sQ/xb/nEXf8d7QleFXo5mnnC+n8VhQWTY+weCXerHDD4LX3w2DM4C+h8uILN94OIFWhRt4Gam73zA4YxhfjsOxNYfrDMfBpLCZaDjsVuqs8wwBuePqHHJj8xi/el/9mZquaFjMyWcjdSq/hdaDvWg+OIzBKdvfpqbRfrAXx5oyOKYJwi1oGwnH7UDFvva+J3kiTwuBaNn2477h0FRkDpymEdzJ2oYDWPxzDuP37MUqCOfRVz+CkQUJyuy89ZrcrLRvYRaXQ1KPGXCaxjAuGy3ZKq/mOn/FsdMzdpG4gIEmuyhsmsSM9cInuH86vEraADi9uDokI/Bez10dShqcEYw444crn0S6lV9VXCSV+18GCQvIweFgYQ7XmxKVygdw+U4xSxV14rH2dAmLC0sY+c8VJLIIFDVN1KMB2aq8czTPApzhKApGhsNw9FyXlcPKYeWENlUhMpqWW32YgOYlslELzu5NraGfJXG2TBnJRi04VRveQpzVQ7aRjVpw1ldW45WX38Q7NSdiBYmgkE1kG9moBWdD1WbrzS+u24g1a9djzdp1WPPSKl/IhrXrQTYRGLJRC47oXK+o2oyKqtdQUbUJFa+u8oVssGzZXOjM14Jjval6Czb8JZ5LZfUWV9WQ3b4d7Nzer7idiNv7FXC4vV8Bh9v7FXBMqWJLfRxa2arUB2XK5zMcns/h+ZzQZwrYrdit2K2S5FbDuEM9f4+m0a6QfinTvqExpxetn03Z3VoLuPPZAJojAGQcnOa/j2JE7vETzRazc2W/OcQsOId8egOt/hy94KrjfkbB6cgUbyMSglkxDo2WzcUMgjOMQTd3ctJ5Gl4rrZ+aDIITtP2tfDeHrEI48xg4VJ64Yw6cNq879Jx+tYT73yQMzne9AVrYbU6LmdLcJeOMQWYoJ2B7f0FDT+fRJ1r7S1gcGgBnGIOPCmYHXynDZYURcKxrqOBY8q+cnUZHCVVDLmYAnPIEV2c8CbJtKJws7ss3l5ex8JOhGQrnCtrOz+Ix3U3zdAnjlzKhz9XIELzWjYXjdcDl3M9wFEGd4TAcvYzIymHlsHJCT/fsVmG7VZwbtEUdRTZqKYfb+xWdXdzer4DD7f0KONzer4DD7f0KOFYUj+mT+60H03s8nJ7s/j+CprUCS+IcnwAAAABJRU5ErkJggg==;" vertex="1" parent="1">
          <mxGeometry x="-2000" y="-1040" width="71" height="354" as="geometry" />
        </mxCell>
        <mxCell id="LAXVHFjVONjvP_47dxOA-3" value="&lt;font style=&quot;font-size: 40px&quot;&gt;Workflow&lt;/font&gt;" style="text;html=1;strokeColor=none;fillColor=none;align=left;verticalAlign=middle;whiteSpace=wrap;rounded=0;" vertex="1" parent="1">
          <mxGeometry x="-1920" y="-1030" width="250" height="50" as="geometry" />
        </mxCell>
        <mxCell id="LAXVHFjVONjvP_47dxOA-5" value="" style="shape=table;html=1;whiteSpace=wrap;startSize=0;container=1;collapsible=0;childLayout=tableLayout;" vertex="1" parent="1">
          <mxGeometry x="-1910" y="-943" width="1545" height="160" as="geometry" />
        </mxCell>
        <mxCell id="LAXVHFjVONjvP_47dxOA-6" value="" style="shape=partialRectangle;html=1;whiteSpace=wrap;collapsible=0;dropTarget=0;pointerEvents=0;fillColor=none;top=0;left=0;bottom=0;right=0;points=[[0,0.5],[1,0.5]];portConstraint=eastwest;" vertex="1" parent="LAXVHFjVONjvP_47dxOA-5">
          <mxGeometry width="1545" height="40" as="geometry" />
        </mxCell>
        <mxCell id="LAXVHFjVONjvP_47dxOA-7" value="Name" style="shape=partialRectangle;html=1;whiteSpace=wrap;connectable=0;top=0;left=0;bottom=0;right=0;overflow=hidden;align=left;fillColor=#6C757D;fontColor=#FFFFFF;fontStyle=1;fontSize=18;" vertex="1" parent="LAXVHFjVONjvP_47dxOA-6">
          <mxGeometry width="307" height="40" as="geometry" />
        </mxCell>
        <mxCell id="LAXVHFjVONjvP_47dxOA-8" value="Description" style="shape=partialRectangle;html=1;whiteSpace=wrap;connectable=0;top=0;left=0;bottom=0;right=0;overflow=hidden;align=left;fontColor=#FFFFFF;fillColor=#6C757D;fontStyle=1;fontSize=18;" vertex="1" parent="LAXVHFjVONjvP_47dxOA-6">
          <mxGeometry x="307" width="167" height="40" as="geometry" />
        </mxCell>
        <mxCell id="LAXVHFjVONjvP_47dxOA-30" value="Source" style="shape=partialRectangle;html=1;whiteSpace=wrap;connectable=0;top=0;left=0;bottom=0;right=0;overflow=hidden;align=left;fontColor=#FFFFFF;fillColor=#6C757D;fontSize=18;" vertex="1" parent="LAXVHFjVONjvP_47dxOA-6">
          <mxGeometry x="474" width="285" height="40" as="geometry" />
        </mxCell>
        <mxCell id="LAXVHFjVONjvP_47dxOA-9" value="Assigned To" style="shape=partialRectangle;html=1;whiteSpace=wrap;connectable=0;top=0;left=0;bottom=0;right=0;overflow=hidden;align=left;fontColor=#FFFFFF;fillColor=#6C757D;fontSize=18;" vertex="1" parent="LAXVHFjVONjvP_47dxOA-6">
          <mxGeometry x="759" width="285" height="40" as="geometry" />
        </mxCell>
        <mxCell id="LAXVHFjVONjvP_47dxOA-10" value="Due Date:" style="shape=partialRectangle;html=1;whiteSpace=wrap;connectable=0;top=0;left=0;bottom=0;right=0;overflow=hidden;align=left;fontColor=#FFFFFF;fillColor=#6C757D;fontSize=18;" vertex="1" parent="LAXVHFjVONjvP_47dxOA-6">
          <mxGeometry x="1044" width="171" height="40" as="geometry" />
        </mxCell>
        <mxCell id="LAXVHFjVONjvP_47dxOA-11" value="View/Edit" style="shape=partialRectangle;html=1;whiteSpace=wrap;connectable=0;top=0;left=0;bottom=0;right=0;overflow=hidden;fillColor=#6C757D;fontColor=#FFFFFF;fontSize=18;align=left;" vertex="1" parent="LAXVHFjVONjvP_47dxOA-6">
          <mxGeometry x="1215" width="330" height="40" as="geometry" />
        </mxCell>
        <mxCell id="LAXVHFjVONjvP_47dxOA-12" style="shape=partialRectangle;html=1;whiteSpace=wrap;collapsible=0;dropTarget=0;pointerEvents=0;fillColor=none;top=0;left=0;bottom=0;right=0;points=[[0,0.5],[1,0.5]];portConstraint=eastwest;" vertex="1" parent="LAXVHFjVONjvP_47dxOA-5">
          <mxGeometry y="40" width="1545" height="40" as="geometry" />
        </mxCell>
        <mxCell id="LAXVHFjVONjvP_47dxOA-13" value="Enter Center" style="shape=partialRectangle;html=1;whiteSpace=wrap;connectable=0;fillColor=none;top=0;left=0;bottom=0;right=0;overflow=hidden;align=left;fontSize=16;" vertex="1" parent="LAXVHFjVONjvP_47dxOA-12">
          <mxGeometry width="307" height="40" as="geometry" />
        </mxCell>
        <mxCell id="LAXVHFjVONjvP_47dxOA-14" value="Center needs to be entered" style="shape=partialRectangle;html=1;whiteSpace=wrap;connectable=0;fillColor=none;top=0;left=0;bottom=0;right=0;overflow=hidden;align=left;fontSize=16;" vertex="1" parent="LAXVHFjVONjvP_47dxOA-12">
          <mxGeometry x="307" width="167" height="40" as="geometry" />
        </mxCell>
        <mxCell id="LAXVHFjVONjvP_47dxOA-31" style="shape=partialRectangle;html=1;whiteSpace=wrap;connectable=0;fillColor=none;top=0;left=0;bottom=0;right=0;overflow=hidden;align=left;fontSize=16;" vertex="1" parent="LAXVHFjVONjvP_47dxOA-12">
          <mxGeometry x="474" width="285" height="40" as="geometry" />
        </mxCell>
        <mxCell id="LAXVHFjVONjvP_47dxOA-15" value="Jennifer Rivera &amp;lt;jrivera@pegisolutions.com&amp;gt;" style="shape=partialRectangle;html=1;whiteSpace=wrap;connectable=0;fillColor=none;top=0;left=0;bottom=0;right=0;overflow=hidden;align=left;fontSize=16;" vertex="1" parent="LAXVHFjVONjvP_47dxOA-12">
          <mxGeometry x="759" width="285" height="40" as="geometry" />
        </mxCell>
        <mxCell id="LAXVHFjVONjvP_47dxOA-16" value="2021-02-17 9:00 AM" style="shape=partialRectangle;html=1;whiteSpace=wrap;connectable=0;fillColor=none;top=0;left=0;bottom=0;right=0;overflow=hidden;align=left;fontSize=16;" vertex="1" parent="LAXVHFjVONjvP_47dxOA-12">
          <mxGeometry x="1044" width="171" height="40" as="geometry" />
        </mxCell>
        <mxCell id="LAXVHFjVONjvP_47dxOA-17" value="&#xa;&#xa;&lt;h3 style=&quot;box-sizing: border-box; font-family: roboto, sans-serif; font-weight: 700; line-height: 1.1; color: rgb(51, 51, 51); margin-top: 20px; margin-bottom: 10px; font-size: 16px; font-style: normal; letter-spacing: normal; text-indent: 0px; text-transform: none; word-spacing: 0px; background-color: rgb(252, 252, 252);&quot;&gt;6C757D&lt;/h3&gt;&#xa;&#xa;" style="shape=partialRectangle;html=1;whiteSpace=wrap;connectable=0;fillColor=none;top=0;left=0;bottom=0;right=0;overflow=hidden;fontSize=16;align=left;" vertex="1" parent="LAXVHFjVONjvP_47dxOA-12">
          <mxGeometry x="1215" width="330" height="40" as="geometry" />
        </mxCell>
        <mxCell id="LAXVHFjVONjvP_47dxOA-18" value="" style="shape=partialRectangle;html=1;whiteSpace=wrap;collapsible=0;dropTarget=0;pointerEvents=0;fillColor=none;top=0;left=0;bottom=0;right=0;points=[[0,0.5],[1,0.5]];portConstraint=eastwest;" vertex="1" parent="LAXVHFjVONjvP_47dxOA-5">
          <mxGeometry y="80" width="1545" height="40" as="geometry" />
        </mxCell>
        <mxCell id="LAXVHFjVONjvP_47dxOA-19" value="Enter DEA and CLIA License" style="shape=partialRectangle;html=1;whiteSpace=wrap;connectable=0;fillColor=none;top=0;left=0;bottom=0;right=0;overflow=hidden;align=left;fontSize=16;" vertex="1" parent="LAXVHFjVONjvP_47dxOA-18">
          <mxGeometry width="307" height="40" as="geometry" />
        </mxCell>
        <mxCell id="LAXVHFjVONjvP_47dxOA-20" value="Licenses Available" style="shape=partialRectangle;html=1;whiteSpace=wrap;connectable=0;fillColor=none;top=0;left=0;bottom=0;right=0;overflow=hidden;fontSize=16;align=left;" vertex="1" parent="LAXVHFjVONjvP_47dxOA-18">
          <mxGeometry x="307" width="167" height="40" as="geometry" />
        </mxCell>
        <mxCell id="LAXVHFjVONjvP_47dxOA-32" value="Wrike" style="shape=partialRectangle;html=1;whiteSpace=wrap;connectable=0;fillColor=none;top=0;left=0;bottom=0;right=0;overflow=hidden;fontSize=16;align=left;" vertex="1" parent="LAXVHFjVONjvP_47dxOA-18">
          <mxGeometry x="474" width="285" height="40" as="geometry" />
        </mxCell>
        <mxCell id="LAXVHFjVONjvP_47dxOA-21" value="Danielle Kiveris &amp;lt;dkiveris@pegisolutions.com&amp;gt;" style="shape=partialRectangle;html=1;whiteSpace=wrap;connectable=0;fillColor=none;top=0;left=0;bottom=0;right=0;overflow=hidden;fontSize=16;align=left;" vertex="1" parent="LAXVHFjVONjvP_47dxOA-18">
          <mxGeometry x="759" width="285" height="40" as="geometry" />
        </mxCell>
        <mxCell id="LAXVHFjVONjvP_47dxOA-22" value="N/A" style="shape=partialRectangle;html=1;whiteSpace=wrap;connectable=0;fillColor=none;top=0;left=0;bottom=0;right=0;overflow=hidden;fontSize=16;align=left;" vertex="1" parent="LAXVHFjVONjvP_47dxOA-18">
          <mxGeometry x="1044" width="171" height="40" as="geometry" />
        </mxCell>
        <mxCell id="LAXVHFjVONjvP_47dxOA-23" style="shape=partialRectangle;html=1;whiteSpace=wrap;connectable=0;fillColor=none;top=0;left=0;bottom=0;right=0;overflow=hidden;fontSize=16;align=left;" vertex="1" parent="LAXVHFjVONjvP_47dxOA-18">
          <mxGeometry x="1215" width="330" height="40" as="geometry" />
        </mxCell>
        <mxCell id="LAXVHFjVONjvP_47dxOA-24" value="" style="shape=partialRectangle;html=1;whiteSpace=wrap;collapsible=0;dropTarget=0;pointerEvents=0;fillColor=none;top=0;left=0;bottom=0;right=0;points=[[0,0.5],[1,0.5]];portConstraint=eastwest;" vertex="1" parent="LAXVHFjVONjvP_47dxOA-5">
          <mxGeometry y="120" width="1545" height="40" as="geometry" />
        </mxCell>
        <mxCell id="LAXVHFjVONjvP_47dxOA-25" value="Brucke" style="shape=partialRectangle;html=1;whiteSpace=wrap;connectable=0;fillColor=none;top=0;left=0;bottom=0;right=0;overflow=hidden;fontSize=16;align=left;" vertex="1" parent="LAXVHFjVONjvP_47dxOA-24">
          <mxGeometry width="307" height="40" as="geometry" />
        </mxCell>
        <mxCell id="LAXVHFjVONjvP_47dxOA-26" value="Ritchie" style="shape=partialRectangle;html=1;whiteSpace=wrap;connectable=0;fillColor=none;top=0;left=0;bottom=0;right=0;overflow=hidden;fontSize=16;align=left;" vertex="1" parent="LAXVHFjVONjvP_47dxOA-24">
          <mxGeometry x="307" width="167" height="40" as="geometry" />
        </mxCell>
        <mxCell id="LAXVHFjVONjvP_47dxOA-33" style="shape=partialRectangle;html=1;whiteSpace=wrap;connectable=0;fillColor=none;top=0;left=0;bottom=0;right=0;overflow=hidden;fontSize=16;align=left;" vertex="1" parent="LAXVHFjVONjvP_47dxOA-24">
          <mxGeometry x="474" width="285" height="40" as="geometry" />
        </mxCell>
        <mxCell id="LAXVHFjVONjvP_47dxOA-27" value="BRUCE.RITCHIE@peninsula.org" style="shape=partialRectangle;html=1;whiteSpace=wrap;connectable=0;fillColor=none;top=0;left=0;bottom=0;right=0;overflow=hidden;fontSize=16;align=left;" vertex="1" parent="LAXVHFjVONjvP_47dxOA-24">
          <mxGeometry x="759" width="285" height="40" as="geometry" />
        </mxCell>
        <mxCell id="LAXVHFjVONjvP_47dxOA-28" value="General" style="shape=partialRectangle;html=1;whiteSpace=wrap;connectable=0;fillColor=none;top=0;left=0;bottom=0;right=0;overflow=hidden;fontSize=16;align=left;" vertex="1" parent="LAXVHFjVONjvP_47dxOA-24">
          <mxGeometry x="1044" width="171" height="40" as="geometry" />
        </mxCell>
        <mxCell id="LAXVHFjVONjvP_47dxOA-29" style="shape=partialRectangle;html=1;whiteSpace=wrap;connectable=0;fillColor=none;top=0;left=0;bottom=0;right=0;overflow=hidden;fontSize=16;align=left;" vertex="1" parent="LAXVHFjVONjvP_47dxOA-24">
          <mxGeometry x="1215" width="330" height="40" as="geometry" />
        </mxCell>
      </root>
    </mxGraphModel>
  </diagram>
</mxfile>
